<!--?xml version="1.0" standalone="no"?-->
              <svg id="sw-js-blob-svg" viewBox="0 0 100 100" xmlns="http://www.w3.org/2000/svg" version="1.1">
                    <defs> 
                        <linearGradient id="sw-gradient" x1="0" x2="1" y1="1" y2="0">
                            <stop id="stop1" stop-color="rgba(122, 255, 202, 1)" offset="0%"></stop>
                            <stop id="stop2" stop-color="rgba(255, 138, 206, 1)" offset="100%"></stop>
                        </linearGradient>
                    </defs>
                <path fill="url(#sw-gradient)" d="M20.2,-34.9C26.6,-31.2,32.5,-26.7,35,-20.7C37.6,-14.8,36.8,-7.4,37.5,0.4C38.3,8.3,40.6,16.5,37.3,21.1C33.9,25.7,24.9,26.7,17.8,30.4C10.6,34.1,5.3,40.5,-0.9,42.1C-7.1,43.7,-14.2,40.3,-18.6,34.9C-22.9,29.6,-24.5,22.4,-25.8,16.2C-27.1,10.1,-28.2,5,-29.4,-0.7C-30.6,-6.5,-32.1,-12.9,-30.1,-17.9C-28.1,-22.8,-22.6,-26.2,-17,-30.4C-11.4,-34.6,-5.7,-39.6,0.6,-40.6C6.9,-41.6,13.8,-38.7,20.2,-34.9Z" width="100%" height="100%" transform="translate(50 50)" stroke-width="0" style="transition: all 0.3s ease 0s;"></path>
              </svg>