<!--?xml version="1.0" standalone="no"?-->
              <svg id="sw-js-blob-svg" viewBox="0 0 100 100" xmlns="http://www.w3.org/2000/svg" version="1.1">
                    <defs> 
                        <linearGradient id="sw-gradient" x1="0" x2="1" y1="1" y2="0">
                            <stop id="stop1" stop-color="rgba(122, 255, 202, 1)" offset="0%"></stop>
                            <stop id="stop2" stop-color="rgba(255, 138, 206, 1)" offset="100%"></stop>
                        </linearGradient>
                    </defs>
                <path fill="url(#sw-gradient)" d="M22,-36.7C28.2,-34.5,32.8,-28,34.4,-21.2C36.1,-14.4,34.7,-7.2,35.6,0.5C36.5,8.2,39.6,16.5,36.7,21C33.8,25.6,24.8,26.5,17.7,29.3C10.6,32.1,5.3,36.8,-0.4,37.4C-6,38.1,-12.1,34.7,-17.2,30.7C-22.3,26.8,-26.4,22.2,-30.8,17C-35.2,11.8,-39.8,5.9,-41,-0.7C-42.2,-7.3,-40,-14.5,-36.6,-21.4C-33.1,-28.4,-28.6,-34.9,-22.3,-37.2C-16,-39.4,-8,-37.3,-0.1,-37.2C7.9,-37.1,15.7,-39,22,-36.7Z" width="100%" height="100%" transform="translate(50 50)" stroke-width="0" style="transition: all 0.3s ease 0s;"></path>
              </svg>